<?xml version="1.0" encoding="iso-8859-1"?>
<!-- Generator: Adobe Illustrator 19.0.0, SVG Export Plug-In . SVG Version: 6.00 Build 0)  -->
<svg version="1.1" id="Layer_1" xmlns="http://www.w3.org/2000/svg" xmlns:xlink="http://www.w3.org/1999/xlink" x="0px" y="0px"
	 viewBox="0 0 512 512" style="enable-background:new 0 0 512 512;" xml:space="preserve">
<path d="M251.64,512l-89.016-192.984c0,0-93.376,1.248-93.376,87.16V512H251.64z"/>
<path d="M260.36,512l89.016-192.984c0,0,93.376,1.248,93.376,87.152V512H260.36z"/>
<polygon style="fill:#E21B1B;" points="255.999,319.016 191.879,319.016 255.999,460.96 320.12,319.016 "/>
<circle cx="255.997" cy="139.507" r="42.498"/>
<path style="fill:#CCCCCC;" d="M395.592,160.432v-41.848l-42.6-4.264c-2.415-8.849-6.099-17.302-10.936-25.096l27.464-33.6
	l-29.6-29.6l-34.904,28.6c-7.391-3.904-15.264-6.818-23.416-8.664L277.016,0h-42.032l-4.584,45.968
	c-8.152,1.847-16.026,4.759-23.416,8.664l-34.928-28.568l-29.6,29.6l27.464,33.6c-4.833,7.795-8.517,16.248-10.936,25.096
	l-42.6,4.264v41.848l42.664,4.264c2.42,8.831,6.09,17.27,10.896,25.063l-27.48,33.6l29.6,29.6l34.912-28.56
	c7.396,3.888,15.272,6.785,23.424,8.616l4.6,45.968h42.032l4.6-45.968c8.152-1.847,16.026-4.759,23.416-8.664l34.912,28.56
	l29.6-29.6l-27.48-33.6c4.808-7.792,8.477-16.233,10.896-25.063L395.592,160.432z M255.999,202.464
	c-34.768,0-62.952-28.184-62.952-62.952s28.184-62.952,62.952-62.952s62.952,28.184,62.952,62.952l0,0
	C318.952,174.279,290.767,202.464,255.999,202.464z"/>
<g>
</g>
<g>
</g>
<g>
</g>
<g>
</g>
<g>
</g>
<g>
</g>
<g>
</g>
<g>
</g>
<g>
</g>
<g>
</g>
<g>
</g>
<g>
</g>
<g>
</g>
<g>
</g>
<g>
</g>
</svg>
